<?xml version="1.0" ?><svg xmlns="http://www.w3.org/2000/svg" xmlns:xlink="http://www.w3.org/1999/xlink" version="1.1" viewBox="0 0 512 512" style="enable-background:new 0 0 512 512;" xml:space="preserve"><g id="_x33_2_Conveyor_x2C__Production_x2C__Conveyor_Belt_x2C__Manufacturing_x2C__Production"><g><g><g><path style="fill:#CDDCF9;" d="M396.02,281.002v100.017c-13.99,0-101.769,0-120.018,0V281.002h40.003v40.013h40.013v-40.013      H396.02z"/><rect x="316.004" y="281.002" style="fill:#FFFFFF;" width="40.013" height="40.013"/><path style="fill:#FFFFFF;" d="M321.015,110.94v20.081c0,5.498-4.462,9.961-9.961,9.961c-19.643,0-80.347,0-110.107,0      c-5.498,0-9.961-4.462-9.961-9.961V110.94c0-5.508,4.462-9.961,9.961-9.961c36.795,0,73.495,0,110.107,0      C316.552,100.979,321.015,105.432,321.015,110.94z"/><path style="fill:#FFFFFF;" d="M301.003,70.927v30.052h-90.006V70.927c0-5.498,4.452-9.961,9.961-9.961      c21.739,0,48.329,0,70.085,0C296.551,60.966,301.003,65.429,301.003,70.927z"/><rect x="230.998" y="10.963" style="fill:#FFFFFF;" width="50.004" height="50.004"/><polygon style="fill:#CDDCF9;" points="235.999,281.002 235.999,381.019 130.981,381.019 115.98,381.019 115.98,281.002       155.983,281.002 155.983,321.015 195.996,321.015 195.996,281.002     "/><rect x="155.983" y="281.002" style="fill:#FFFFFF;" width="40.013" height="40.013"/><path style="fill:#FFFFFF;" d="M441.272,381.019c-78.906,0-291.942,0-370.544,0c-33.01,0-59.765,26.755-59.765,59.765v0.488      c0,33.01,26.755,59.765,59.765,59.765c16.086,0,354.507,0,370.544,0c33.01,0,59.765-26.755,59.765-59.765v-0.488      C501.037,407.774,474.282,381.019,441.272,381.019z"/><path style="fill:#FFFFFF;" d="M381.019,381.019c-33.14,0-60.004,26.864-60.004,60.014c0,33.14,26.864,60.004,60.004,60.004      s60.014-26.864,60.014-60.004C441.033,407.883,414.159,381.019,381.019,381.019z"/><path style="fill:#CDDCF9;" d="M381.019,421.022c11.047,0,20.001,8.955,20.001,20.011c0,11.047-8.955,20.001-20.001,20.001      s-20.001-8.955-20.001-20.001C361.017,429.976,369.972,421.022,381.019,421.022z"/><path style="fill:#FFFFFF;" d="M130.981,381.019c-33.14,0-60.014,26.864-60.014,60.014c0,33.14,26.874,60.004,60.014,60.004      s60.004-26.864,60.004-60.004C190.985,407.883,164.121,381.019,130.981,381.019z"/><path style="fill:#CDDCF9;" d="M130.981,421.022c11.047,0,20.001,8.955,20.001,20.011c0,11.047-8.955,20.001-20.001,20.001      s-20.001-8.955-20.001-20.001C110.98,429.976,119.935,421.022,130.981,421.022z"/></g></g><g><g><g id="XMLID_1020_"><path style="fill:#487FE9;" d="M441.272,510.998H70.728c-38.447,0-69.726-31.278-69.726-69.726v-0.488       c0-38.448,31.279-69.726,69.726-69.726h370.544c38.447,0,69.726,31.278,69.726,69.726v0.488       C510.998,479.72,479.719,510.998,441.272,510.998z M70.728,390.979c-27.462,0-49.804,22.342-49.804,49.804v0.488       c0,27.462,22.342,49.804,49.804,49.804h370.544c27.462,0,49.804-22.342,49.804-49.804v-0.488       c0-27.462-22.342-49.804-49.804-49.804H70.728z"/></g><g id="XMLID_1019_"><path style="fill:#487FE9;" d="M130.981,510.998c-38.582,0-69.97-31.388-69.97-69.97s31.388-69.97,69.97-69.97       c38.581,0,69.969,31.388,69.969,69.97S169.562,510.998,130.981,510.998z M130.981,390.979       c-27.597,0-50.048,22.452-50.048,50.048s22.452,50.048,50.048,50.048s50.047-22.452,50.047-50.048       S158.578,390.979,130.981,390.979z"/></g><g id="XMLID_1016_"><path style="fill:#487FE9;" d="M130.981,470.992c-16.522,0-29.964-13.442-29.964-29.964c0-16.522,13.442-29.963,29.964-29.963       s29.963,13.441,29.963,29.963C160.945,457.55,147.503,470.992,130.981,470.992z M130.981,430.986       c-5.538,0-10.043,4.505-10.043,10.042c0,5.538,4.505,10.043,10.043,10.043c5.537,0,10.042-4.505,10.042-10.043       C141.023,435.491,136.518,430.986,130.981,430.986z"/></g><g id="XMLID_1015_"><path style="fill:#487FE9;" d="M381.019,510.998c-38.581,0-69.969-31.388-69.969-69.97s31.388-69.97,69.969-69.97       c38.582,0,69.97,31.388,69.97,69.97S419.6,510.998,381.019,510.998z M381.019,390.979c-27.597,0-50.048,22.452-50.048,50.048       s22.451,50.048,50.048,50.048s50.048-22.452,50.048-50.048S408.615,390.979,381.019,390.979z"/></g><g id="XMLID_1014_"><path style="fill:#487FE9;" d="M381.019,470.992c-16.522,0-29.963-13.442-29.963-29.964c0-16.522,13.441-29.963,29.963-29.963       c16.522,0,29.964,13.441,29.964,29.963C410.983,457.55,397.541,470.992,381.019,470.992z M381.019,430.986       c-5.537,0-10.042,4.505-10.042,10.042c0,5.538,4.505,10.043,10.042,10.043c5.538,0,10.043-4.505,10.043-10.043       C391.061,435.491,386.556,430.986,381.019,430.986z"/></g><g id="XMLID_1013_"><path style="fill:#487FE9;" d="M501.037,20.924H10.963c-5.501,0-9.961-4.46-9.961-9.961s4.46-9.961,9.961-9.961h490.074       c5.501,0,9.961,4.46,9.961,9.961S506.538,20.924,501.037,20.924z"/></g><g id="XMLID_1012_"><path style="fill:#487FE9;" d="M281.003,70.931h-50.007c-5.501,0-9.961-4.46-9.961-9.961V10.963       c0-5.501,4.46-9.961,9.961-9.961h50.007c5.501,0,9.961,4.46,9.961,9.961V60.97C290.964,66.471,286.504,70.931,281.003,70.931z        M240.958,51.01h30.085V20.924h-30.085V51.01z"/></g><g id="XMLID_1011_"><path style="fill:#487FE9;" d="M301.007,110.937h-90.014c-5.501,0-9.961-4.46-9.961-9.961V70.931       c0-10.985,8.937-19.922,19.922-19.922h70.092c10.985,0,19.922,8.937,19.922,19.922v30.045       C310.968,106.477,306.508,110.937,301.007,110.937z M220.954,91.015h70.092V70.931h-70.092V91.015z"/></g><g id="XMLID_1010_"><path style="fill:#487FE9;" d="M311.049,150.943H200.951c-10.985,0-19.922-8.937-19.922-19.922v-20.084       c0-10.985,8.937-19.922,19.922-19.922h110.099c10.985,0,19.922,8.937,19.922,19.922v20.084       C330.971,142.007,322.034,150.943,311.049,150.943z M200.951,110.937v20.084c4.738,0-26.081,0,110.111-0.001l-0.013-20.083       H200.951z"/></g><g id="XMLID_1009_"><path style="fill:#487FE9;" d="M235.997,390.979c-5.501,0-9.961-4.46-9.961-9.961v-90.054H125.94v90.054       c0,5.501-4.46,9.961-9.961,9.961s-9.961-4.46-9.961-9.961V281.003c0-5.501,4.46-9.961,9.961-9.961h120.018       c5.501,0,9.961,4.46,9.961,9.961v100.015C245.957,386.519,241.497,390.979,235.997,390.979z"/></g><g id="XMLID_1008_"><path style="fill:#487FE9;" d="M195.991,330.971h-40.006c-5.501,0-9.961-4.46-9.961-9.961v-40.007       c0-5.501,4.46-9.961,9.961-9.961c5.501,0,9.961,4.46,9.961,9.961v30.046h20.084v-30.046c0-5.501,4.46-9.961,9.961-9.961       c5.501,0,9.961,4.46,9.961,9.961v40.007C205.952,326.511,201.492,330.971,195.991,330.971z"/></g><g id="XMLID_1007_"><path style="fill:#487FE9;" d="M396.021,390.979c-5.501,0-9.961-4.46-9.961-9.961v-90.054H285.964v90.054       c0,5.501-4.46,9.961-9.961,9.961c-5.501,0-9.961-4.46-9.961-9.961V281.003c0-5.501,4.46-9.961,9.961-9.961h120.018       c5.501,0,9.961,4.46,9.961,9.961v100.015C405.982,386.519,401.522,390.979,396.021,390.979z"/></g><g id="XMLID_1006_"><path style="fill:#487FE9;" d="M356.015,330.971h-40.006c-5.501,0-9.961-4.46-9.961-9.961v-40.007       c0-5.501,4.46-9.961,9.961-9.961c5.501,0,9.961,4.46,9.961,9.961v30.046h20.084v-30.046c0-5.501,4.46-9.961,9.961-9.961       s9.961,4.46,9.961,9.961v40.007C365.976,326.511,361.516,330.971,356.015,330.971z"/></g><g id="XMLID_1005_"><path style="fill:#487FE9;" d="M175.988,250.958c-5.501,0-9.961-4.46-9.961-9.961V190.99c0-2.956,1.313-5.76,3.584-7.653       l60.008-50.008c4.227-3.52,10.507-2.951,14.03,1.275c3.521,4.227,2.95,10.508-1.275,14.03l-56.425,47.02v45.342       C185.949,246.498,181.489,250.958,175.988,250.958z"/></g><g id="XMLID_1004_"><path style="fill:#487FE9;" d="M336.012,250.958c-5.501,0-9.961-4.46-9.961-9.961v-45.342l-56.425-47.02       c-4.226-3.522-4.797-9.803-1.275-14.03c3.525-4.226,9.804-4.795,14.03-1.275l60.008,50.008c2.27,1.893,3.584,4.696,3.584,7.653       v50.008C345.973,246.498,341.513,250.958,336.012,250.958z"/></g></g></g></g></g><g id="Layer_1"/></svg>