<?xml version="1.0" ?><svg xmlns="http://www.w3.org/2000/svg" xmlns:xlink="http://www.w3.org/1999/xlink" version="1.1" id="Layer_1" viewBox="0 0 100 100" style="enable-background:new 0 0 100 100;" xml:space="preserve"><style type="text/css">
	.st0{fill:#48EDE5;}
	.st1{fill:#333333;}
</style><g><path class="st0" d="M63.8,20.2c-8.8,0-15.9,7.1-15.9,15.9c0,8.8,7.1,15.9,15.9,15.9S79.8,45,79.8,36.2   C79.8,27.4,72.6,20.2,63.8,20.2z"/><g><path class="st1" d="M65.1,67.3H44.7l-2.2-7.3c0,0,0,0,0,0c1.1-1.4,1.7-3.2,1.7-5.1c0-3.2-1.8-6.1-4.5-7.5c0,0,0,0,0,0l-5.1-8.1    h19.2l0.6,4.5c0,0.2,0.1,0.3,0.2,0.4c-0.6,0.5-0.9,1.3-1,2.1l-6.9,5.4c-0.4,0.3-0.5,1-0.2,1.4l4.3,6.6c0.1,0.2,0.4,0.4,0.6,0.4    v5.9c0,0.6,0.5,1.1,1.1,1.1h9.5c0.6,0,1.1-0.5,1.1-1.1v-6c0.2-0.1,0.3-0.2,0.4-0.4l3.9-6.6c0.3-0.5,0.2-1-0.2-1.4l-6.5-5.4    c-0.1-1-0.6-1.8-1.3-2.4c0-0.1,0.1-0.1,0.1-0.2l0.8-5.5c0-0.1,0-0.1,0-0.2c0.8-0.8,1.3-1.9,1.3-3.1c0-2.3-1.9-4.3-4.3-4.3    c-0.7,0-1.4,0.2-2,0.5c-0.1,0-0.2-0.1-0.3-0.1H29.9c-0.1,0-0.2,0-0.3,0.1c-0.6-0.3-1.3-0.5-2-0.5c-2.3,0-4.3,1.9-4.3,4.3    c0,0.8,0.2,1.6,0.7,2.2c0,0,0,0.1,0,0.1l3.7,14.2c0,0.1,0,0.1,0.1,0.1c-0.4,1-0.6,2-0.6,3.1c0,1.9,0.6,3.7,1.7,5.1c0,0,0,0,0,0    l-2.2,7.3h-0.3c-3.4,0-6.2,2.8-6.2,6.2s2.8,6.2,6.2,6.2h38.6c3.4,0,6.2-2.8,6.2-6.2S68.5,67.3,65.1,67.3z M42.1,55    c0,3.5-2.9,6.4-6.4,6.4s-6.4-2.9-6.4-6.4c0-3.5,2.9-6.4,6.4-6.4S42.1,51.4,42.1,55z M31.5,33.5H53c-0.2,0.5-0.3,1.1-0.3,1.7    c0,0.7,0.2,1.4,0.5,2H33.2l-1.3-2c0,0,0,0,0-0.1C31.8,34.5,31.7,34,31.5,33.5z M58.3,46.8c0,0.7-0.6,1.4-1.4,1.4    c-0.7,0-1.4-0.6-1.4-1.4c0-0.7,0.6-1.4,1.4-1.4C57.7,45.4,58.3,46,58.3,46.8z M60.7,65h-7.3v-7.4h7.3V65z M62.8,56.3    c-0.1-0.5-0.5-0.8-1-0.8h-9.5c-0.6,0-1.1,0.5-1.1,1.1v0.2l-2.5-3.9l5.3-4.2c0.6,1,1.7,1.6,2.9,1.6c1.2,0,2.3-0.6,2.9-1.6l5,4.1    L62.8,56.3z M57.1,43.3c0,0-0.1,0-0.1,0c-0.2,0-0.3,0-0.5,0.1l-0.6-4.1c0.4,0.1,0.7,0.2,1.1,0.2c0.2,0,0.5,0,0.7-0.1L57.1,43.3z     M59.1,35.2c0,1.2-1,2.1-2.1,2.1c-1.2,0-2.1-1-2.1-2.2c0-1.2,1-2.1,2.1-2.1C58.1,33,59.1,33.9,59.1,35.2z M27.6,33    c1.2,0,2.1,1,2.1,2.2c0,1.2-1,2.1-2.1,2.1s-2.1-1-2.1-2.2C25.5,33.9,26.4,33,27.6,33z M26.7,39.3c0.3,0.1,0.6,0.1,0.9,0.1    c1.4,0,2.6-0.7,3.4-1.7l0.8,1.1c0,0,0,0,0,0l4.9,7.6c-0.3,0-0.6,0-0.9,0c-2.6,0-4.9,1.1-6.4,2.9L26.7,39.3z M30.6,61.7    c1.4,1.1,3.2,1.7,5.1,1.7c1.9,0,3.7-0.6,5.1-1.7l1.7,5.6H28.9L30.6,61.7z M65.1,77.6H26.4c-2.3,0-4.1-1.8-4.1-4.1s1.8-4.1,4.1-4.1    h38.6c2.3,0,4.1,1.8,4.1,4.1S67.3,77.6,65.1,77.6z"/><path class="st1" d="M77.9,32.3c-0.4-0.4-1.1-0.4-1.5,0l-3.9,3.7c-0.3,0.2-0.4,0.6-0.3,0.9c0,0.3,0.1,1.2,0,1.6    c-0.2,0.7-0.4,1.1-0.9,1.7c-0.6,0.7-1,0.9-1.7,1.1l0,0c0,0,0.1-0.1,0.1-0.1c0.8-0.8,0.8-2.1,0-2.9l-1.5-1.6    c-0.4-0.4-1-0.7-1.5-0.7c0,0,0,0,0,0c-0.5,0-1,0.2-1.5,0.6c0-0.1,0.1-0.2,0.1-0.3c0.2-0.7,0.5-1.1,1.1-1.6    c0.6-0.5,0.9-0.7,1.6-0.9c0.5-0.1,1.3,0,1.8,0c0.3,0,0.6,0,0.9-0.2l4.7-4c0.4-0.4,0.5-1.1,0.1-1.5c-0.4-0.4-1.1-0.5-1.5-0.1    l-4.3,3.7c-0.6-0.1-1.4-0.1-2.1,0.1c-1,0.3-1.7,0.6-2.5,1.4c-0.9,0.8-1.3,1.4-1.6,2.5c-0.6,1.7-0.5,3.2,0.4,4.1    c0.2,0.2,0.5,0.3,0.8,0.3c0,0,0,0,0,0c0.3,0,0.6-0.1,0.8-0.3l1.5-1.5l1.5,1.6c-0.5,0.5-1.1,1.2-1.5,1.6c-0.4,0.4-0.4,1,0,1.5    c0.6,0.6,1.3,0.8,2,0.8c0.5,0,1-0.1,1.4-0.2l0.1,0c1.3-0.3,2-0.9,2.8-1.8c0.7-0.8,1.2-1.5,1.4-2.7c0.1-0.6,0.1-1.3,0.1-1.8    l3.5-3.3C78.3,33.4,78.3,32.7,77.9,32.3z"/></g></g></svg>