<?xml version="1.0" encoding="UTF-8" standalone="no"?> <svg id="Layer_1" data-name="Layer 1" xmlns="http://www.w3.org/2000/svg" viewBox="0 0 64 64"><title>silos</title><path d="M50,15H46a1,1,0,0,1-1-1V12a3,3,0,0,0-3-3H22a3,3,0,0,0-3,3v2a1,1,0,0,1-1,1H14a1,1,0,0,1-1-1V12a9,9,0,0,1,9-9H42a9,9,0,0,1,9,9v2A1,1,0,0,1,50,15Z"/><path d="M47,13h2V12a7,7,0,0,0-7-7H22a7,7,0,0,0-7,7v1h2V12a5,5,0,0,1,5-5H42a5,5,0,0,1,5,5Z"/><path d="M20,21H12a1,1,0,0,1-1-1V14a1,1,0,0,1,1-1h8a1,1,0,0,1,1,1v6A1,1,0,0,1,20,21Zm-7-2h6V15H13Z"/><path d="M52,21H44a1,1,0,0,1-1-1V14a1,1,0,0,1,1-1h8a1,1,0,0,1,1,1v6A1,1,0,0,1,52,21Zm-7-2h6V15H45Z"/><path d="M26,57H6a1,1,0,0,1-1-1V48a5,5,0,0,1,5-5H22a5,5,0,0,1,5,5v8A1,1,0,0,1,26,57ZM7,55H25V48a3,3,0,0,0-3-3H10a3,3,0,0,0-3,3Z"/><path d="M26,45H6a1,1,0,0,1-1-1V36a5,5,0,0,1,5-5H22a5,5,0,0,1,5,5v8A1,1,0,0,1,26,45ZM7,43H25V36a3,3,0,0,0-3-3H10a3,3,0,0,0-3,3Z"/><path d="M26,33H6a1,1,0,0,1-1-1V24a5,5,0,0,1,5-5H22a5,5,0,0,1,5,5v8A1,1,0,0,1,26,33ZM7,31H25V24a3,3,0,0,0-3-3H10a3,3,0,0,0-3,3Z"/><path d="M58,57H38a1,1,0,0,1-1-1V48a5,5,0,0,1,5-5H54a5,5,0,0,1,5,5v8A1,1,0,0,1,58,57ZM39,55H57V48a3,3,0,0,0-3-3H42a3,3,0,0,0-3,3Z"/><path d="M58,45H38a1,1,0,0,1-1-1V36a5,5,0,0,1,5-5H54a5,5,0,0,1,5,5v8A1,1,0,0,1,58,45ZM39,43H57V36a3,3,0,0,0-3-3H42a3,3,0,0,0-3,3Z"/><path d="M58,33H38a1,1,0,0,1-1-1V24a5,5,0,0,1,5-5H54a5,5,0,0,1,5,5v8A1,1,0,0,1,58,33ZM39,31H57V24a3,3,0,0,0-3-3H42a3,3,0,0,0-3,3Z"/><path d="M58,61H6a3,3,0,0,1,0-6H58a3,3,0,0,1,0,6ZM6,57a1,1,0,0,0,0,2H58a1,1,0,0,0,0-2Z"/></svg>